<svg width="986" height="679" viewBox="0 0 986 679" fill="none" xmlns="http://www.w3.org/2000/svg">
<g opacity="0.29827">
<path d="M1008.08 346.448L443.182 -173.858V-564.19L28.1096 -587C24.9043 -579.456 4.36709 -557.714 7.57176 -545.596C11.43 -531.102 30.8387 -535.735 36.4776 -526.409C43.0661 -515.42 31.7291 -470.749 28.3457 -457.86C21.8759 -433.445 7.09676 -413.665 2.82235 -389.25C-4.35982 -348.263 10.1824 -351.53 37.7242 -325.927C84.141 -282.742 46.9244 -237.952 58.6176 -187.223C68.1146 -145.878 109.605 -124.554 124.8 -83.2105C136.553 -51.3702 152.697 -43.233 177.746 -19.9466C177.153 -34.0843 164.51 -75.785 188.253 -72.1019C211.817 -68.4784 202.736 -33.6693 207.247 -19.1147C211.045 -6.99663 237.933 17.239 215.616 28.407C208.196 32.09 187.066 17.4175 178.577 13.497C184.572 32.2092 180.774 51.633 190.271 69.5133C201.608 90.838 213.835 82.6412 228.853 94.2246C244.344 106.164 242.683 119.886 235.797 137.945C228.615 156.775 221.196 153.865 232.592 176.557C240.843 192.951 254.85 213.742 266.9 226.216C273.904 233.463 281.502 235.127 288.506 244.393C294.323 252.115 292.067 262.214 299.012 269.164C310.883 281.104 331.006 281.282 340.384 296.904C350.831 314.309 338.96 327.437 369.706 325.833C371.309 360.643 377.897 392.185 377.541 426.994C394.695 433.825 422.414 425.687 440.399 422.063C458.266 446.18 481.355 429.429 501.774 442.558C510.678 448.26 508.837 462.517 514.239 467.506C525.339 477.723 533.529 471.308 547.301 474.872C557.51 477.486 565.404 484.97 575.138 487.703C584.338 490.257 599.475 484.258 606.301 492.396C614.492 502.138 600.78 519.958 613.127 527.799C623.395 534.333 638.115 518.77 648.088 521.027C659.721 523.7 693.079 554.174 701.271 564.212C710.59 575.677 719.969 597.062 725.25 611.793C733.501 634.841 732.373 646.127 749.408 662.998C760.27 673.75 749.942 674.522 767.63 677.67C779.204 679.749 794.518 671.374 806.212 670.067C830.549 667.394 855.122 672.027 879.102 667.453C901.421 663.176 922.729 656.166 945.64 652.899C965.465 650.048 1000.37 652.246 1017.94 642.801C1036.99 632.643 1038.71 609.654 1011.17 613.932C1008.97 599.26 1018.77 579.003 1007.85 568.847C1023.04 548.056 1028.56 533.384 1030.93 507.959C1032 496.792 1032.48 484.436 1038 475.05C1043.4 465.783 1058.59 460.259 1061.56 452.299C1066.13 439.943 1058.83 434.419 1053.25 427.528C1049.69 423.073 1039.54 425.212 1036.63 421.291C1031.23 414.103 1036.57 406.678 1033.6 399.431C1024.94 378.462 1014.61 370.205 1008.08 346.444C1008.26 350.424 1008.44 354.463 1008.2 358.384" stroke="white" stroke-width="2" stroke-linecap="round" stroke-linejoin="round"/>
</g>
<path d="M729.114 266.939C720.546 290.321 740.614 298.526 756.675 313.807C761.434 318.336 761.888 325.817 756.879 330.342C746.107 340.074 705.264 325.917 707.854 338.745C710.53 351.994 745.061 370.531 746.618 371.799C760.284 382.932 764.735 411.174 757.208 426.658C751.852 437.676 716.342 433.962 705.172 430.293C632.024 406.266 664.985 409.131 582.817 401.67C576.527 401.099 569.935 400.806 563.894 402.65C557.671 404.549 557.869 412.339 559.957 416.55C566.876 430.506 597.849 454.178 589.514 472.523C586.956 478.152 580.963 481.707 578.264 487.27C576.151 491.627 576.385 496.772 575.445 501.523" stroke="white" stroke-width="2"/>
<path fill-rule="evenodd" clip-rule="evenodd" d="M573.5 509C577.09 509 580 506.09 580 502.5C580 498.91 577.09 496 573.5 496C569.91 496 567 498.91 567 502.5C567 506.09 569.91 509 573.5 509Z" fill="#4AF6CD"/>
<path fill-rule="evenodd" clip-rule="evenodd" d="M661 546C662.657 546 664 544.657 664 543C664 541.343 662.657 540 661 540C659.343 540 658 541.343 658 543C658 544.657 659.343 546 661 546Z" fill="#4AF6CD"/>
<path fill-rule="evenodd" clip-rule="evenodd" d="M725 654C726.657 654 728 652.657 728 651C728 649.343 726.657 648 725 648C723.343 648 722 649.343 722 651C722 652.657 723.343 654 725 654Z" fill="#4AF6CD"/>
<path fill-rule="evenodd" clip-rule="evenodd" d="M365 411C366.657 411 368 409.657 368 408C368 406.343 366.657 405 365 405C363.343 405 362 406.343 362 408C362 409.657 363.343 411 365 411Z" fill="#4AF6CD"/>
<path fill-rule="evenodd" clip-rule="evenodd" d="M729.5 274C733.09 274 736 271.09 736 267.5C736 263.91 733.09 261 729.5 261C725.91 261 723 263.91 723 267.5C723 271.09 725.91 274 729.5 274Z" fill="#4AF6CD"/>
<path d="M398.41 493.976L396.17 505H394.218L392.186 495.768L390.138 505H388.234L385.994 493.976H387.482L389.258 503.672L391.386 493.976H393.002L395.178 503.672L397.018 493.976H398.41ZM406.544 500.536C406.544 500.781 406.534 501.032 406.512 501.288H401.136C401.2 502.216 401.435 502.899 401.84 503.336C402.246 503.773 402.768 503.992 403.408 503.992C403.814 503.992 404.187 503.933 404.528 503.816C404.87 503.699 405.227 503.512 405.6 503.256L406.24 504.136C405.344 504.84 404.363 505.192 403.296 505.192C402.123 505.192 401.206 504.808 400.544 504.04C399.894 503.272 399.568 502.216 399.568 500.872C399.568 499.997 399.707 499.224 399.984 498.552C400.272 497.869 400.678 497.336 401.2 496.952C401.734 496.568 402.358 496.376 403.072 496.376C404.192 496.376 405.051 496.744 405.648 497.48C406.246 498.216 406.544 499.235 406.544 500.536ZM405.088 500.104C405.088 499.272 404.923 498.637 404.592 498.2C404.262 497.763 403.766 497.544 403.104 497.544C401.899 497.544 401.243 498.429 401.136 500.2H405.088V500.104ZM411.183 496.376C411.759 496.376 412.276 496.456 412.735 496.616C413.194 496.776 413.631 497.016 414.047 497.336L413.423 498.264C413.039 498.019 412.671 497.837 412.319 497.72C411.978 497.603 411.615 497.544 411.231 497.544C410.751 497.544 410.372 497.645 410.095 497.848C409.818 498.04 409.679 498.307 409.679 498.648C409.679 498.989 409.807 499.256 410.063 499.448C410.33 499.64 410.804 499.827 411.487 500.008C412.426 500.243 413.124 500.563 413.583 500.968C414.052 501.373 414.287 501.928 414.287 502.632C414.287 503.464 413.962 504.099 413.311 504.536C412.671 504.973 411.887 505.192 410.959 505.192C409.679 505.192 408.618 504.824 407.775 504.088L408.559 503.192C409.274 503.736 410.063 504.008 410.927 504.008C411.482 504.008 411.919 503.896 412.239 503.672C412.57 503.437 412.735 503.123 412.735 502.728C412.735 502.44 412.676 502.211 412.559 502.04C412.442 501.859 412.239 501.704 411.951 501.576C411.663 501.437 411.242 501.293 410.687 501.144C409.791 500.909 409.14 500.595 408.735 500.2C408.34 499.805 408.143 499.304 408.143 498.696C408.143 498.259 408.271 497.864 408.527 497.512C408.794 497.149 409.156 496.872 409.615 496.68C410.084 496.477 410.607 496.376 411.183 496.376ZM420.62 504.616C420.065 505 419.436 505.192 418.732 505.192C418.017 505.192 417.457 504.989 417.052 504.584C416.657 504.168 416.46 503.571 416.46 502.792V497.704H414.988V496.568H416.46V494.664L417.932 494.488V496.568H419.932L419.772 497.704H417.932V502.728C417.932 503.165 418.006 503.485 418.156 503.688C418.316 503.88 418.577 503.976 418.94 503.976C419.27 503.976 419.644 503.864 420.06 503.64L420.62 504.616ZM429.179 493.784C429.915 493.784 430.545 493.891 431.067 494.104C431.59 494.307 432.097 494.627 432.587 495.064L431.755 495.992C431.339 495.661 430.929 495.421 430.523 495.272C430.129 495.112 429.702 495.032 429.243 495.032C428.667 495.032 428.193 495.165 427.819 495.432C427.446 495.699 427.259 496.088 427.259 496.6C427.259 496.92 427.323 497.192 427.451 497.416C427.579 497.629 427.814 497.827 428.155 498.008C428.507 498.189 429.014 498.381 429.675 498.584C430.369 498.797 430.945 499.027 431.403 499.272C431.862 499.517 432.23 499.859 432.507 500.296C432.795 500.723 432.939 501.267 432.939 501.928C432.939 502.568 432.779 503.133 432.459 503.624C432.15 504.115 431.697 504.499 431.099 504.776C430.513 505.053 429.814 505.192 429.003 505.192C427.478 505.192 426.23 504.717 425.259 503.768L426.091 502.84C426.539 503.203 426.993 503.48 427.451 503.672C427.91 503.853 428.422 503.944 428.987 503.944C429.67 503.944 430.235 503.779 430.683 503.448C431.131 503.107 431.355 502.616 431.355 501.976C431.355 501.613 431.286 501.315 431.147 501.08C431.009 500.835 430.769 500.616 430.427 500.424C430.097 500.232 429.611 500.04 428.971 499.848C427.841 499.507 427.014 499.096 426.491 498.616C425.969 498.136 425.707 497.485 425.707 496.664C425.707 496.109 425.851 495.613 426.139 495.176C426.438 494.739 426.849 494.397 427.371 494.152C427.905 493.907 428.507 493.784 429.179 493.784ZM439.066 496.376C439.834 496.376 440.431 496.605 440.858 497.064C441.295 497.523 441.514 498.152 441.514 498.952V505H440.042V499.16C440.042 498.563 439.925 498.141 439.69 497.896C439.466 497.651 439.135 497.528 438.698 497.528C438.261 497.528 437.871 497.656 437.53 497.912C437.189 498.168 436.869 498.531 436.57 499V505H435.098V493.192L436.57 493.032V497.736C437.231 496.829 438.063 496.376 439.066 496.376ZM447.641 496.376C448.825 496.376 449.742 496.771 450.393 497.56C451.054 498.349 451.385 499.421 451.385 500.776C451.385 501.651 451.236 502.424 450.937 503.096C450.638 503.757 450.206 504.275 449.641 504.648C449.076 505.011 448.404 505.192 447.625 505.192C446.441 505.192 445.518 504.797 444.857 504.008C444.196 503.219 443.865 502.147 443.865 500.792C443.865 499.917 444.014 499.149 444.313 498.488C444.612 497.816 445.044 497.299 445.609 496.936C446.174 496.563 446.852 496.376 447.641 496.376ZM447.641 497.56C446.18 497.56 445.449 498.637 445.449 500.792C445.449 502.936 446.174 504.008 447.625 504.008C449.076 504.008 449.801 502.931 449.801 500.776C449.801 498.632 449.081 497.56 447.641 497.56ZM457.481 496.376C457.78 496.376 458.057 496.408 458.313 496.472L458.041 497.912C457.785 497.848 457.54 497.816 457.305 497.816C456.782 497.816 456.361 498.008 456.041 498.392C455.721 498.776 455.47 499.373 455.289 500.184V505H453.817V496.568H455.081L455.225 498.28C455.449 497.651 455.753 497.176 456.137 496.856C456.521 496.536 456.969 496.376 457.481 496.376ZM465.872 500.536C465.872 500.781 465.862 501.032 465.84 501.288H460.464C460.528 502.216 460.763 502.899 461.168 503.336C461.574 503.773 462.096 503.992 462.736 503.992C463.142 503.992 463.515 503.933 463.856 503.816C464.198 503.699 464.555 503.512 464.928 503.256L465.568 504.136C464.672 504.84 463.691 505.192 462.624 505.192C461.451 505.192 460.534 504.808 459.872 504.04C459.222 503.272 458.896 502.216 458.896 500.872C458.896 499.997 459.035 499.224 459.312 498.552C459.6 497.869 460.006 497.336 460.528 496.952C461.062 496.568 461.686 496.376 462.4 496.376C463.52 496.376 464.379 496.744 464.976 497.48C465.574 498.216 465.872 499.235 465.872 500.536ZM464.416 500.104C464.416 499.272 464.251 498.637 463.92 498.2C463.59 497.763 463.094 497.544 462.432 497.544C461.227 497.544 460.571 498.429 460.464 500.2H464.416V500.104ZM474.41 492.184V506.568H474.058V492.184H474.41ZM493.237 505H491.765L491.381 500.024C491.221 498.072 491.131 496.573 491.109 495.528L488.725 503.752H487.301L484.789 495.512C484.789 496.845 484.72 498.387 484.581 500.136L484.213 505H482.773L483.685 493.976H485.733L488.053 501.992L490.261 493.976H492.325L493.237 505ZM501.434 503.032C501.434 503.373 501.493 503.629 501.61 503.8C501.728 503.96 501.904 504.083 502.138 504.168L501.802 505.192C501.365 505.139 501.013 505.016 500.746 504.824C500.48 504.632 500.282 504.333 500.154 503.928C499.589 504.771 498.752 505.192 497.642 505.192C496.81 505.192 496.154 504.957 495.674 504.488C495.194 504.019 494.954 503.405 494.954 502.648C494.954 501.752 495.274 501.064 495.914 500.584C496.565 500.104 497.482 499.864 498.666 499.864H499.962V499.24C499.962 498.643 499.818 498.216 499.53 497.96C499.242 497.704 498.8 497.576 498.202 497.576C497.584 497.576 496.826 497.725 495.93 498.024L495.562 496.952C496.608 496.568 497.578 496.376 498.474 496.376C499.466 496.376 500.208 496.621 500.698 497.112C501.189 497.592 501.434 498.28 501.434 499.176V503.032ZM497.978 504.088C498.821 504.088 499.482 503.651 499.962 502.776V500.84H498.858C497.301 500.84 496.522 501.416 496.522 502.568C496.522 503.069 496.645 503.448 496.89 503.704C497.136 503.96 497.498 504.088 497.978 504.088ZM505.981 505.192C505.437 505.192 505.005 505.032 504.685 504.712C504.376 504.381 504.221 503.923 504.221 503.336V493.176L505.693 493V503.304C505.693 503.539 505.731 503.709 505.805 503.816C505.891 503.923 506.029 503.976 506.221 503.976C506.424 503.976 506.605 503.944 506.765 503.88L507.149 504.904C506.797 505.096 506.408 505.192 505.981 505.192ZM510.461 496.568V505H508.989V496.568H510.461ZM509.709 492.52C510.018 492.52 510.269 492.616 510.461 492.808C510.653 493 510.749 493.24 510.749 493.528C510.749 493.816 510.653 494.056 510.461 494.248C510.269 494.429 510.018 494.52 509.709 494.52C509.41 494.52 509.165 494.429 508.973 494.248C508.781 494.056 508.685 493.816 508.685 493.528C508.685 493.24 508.781 493 508.973 492.808C509.165 492.616 509.41 492.52 509.709 492.52ZM517.36 496.376C518.32 496.376 519.083 496.765 519.648 497.544C520.214 498.312 520.496 499.389 520.496 500.776C520.496 501.651 520.363 502.424 520.096 503.096C519.83 503.757 519.446 504.275 518.944 504.648C518.443 505.011 517.856 505.192 517.184 505.192C516.299 505.192 515.552 504.819 514.944 504.072L514.8 505H513.504V493.176L514.976 493V497.624C515.584 496.792 516.379 496.376 517.36 496.376ZM516.832 504.024C517.483 504.024 517.99 503.763 518.352 503.24C518.726 502.707 518.912 501.885 518.912 500.776C518.912 499.635 518.742 498.813 518.4 498.312C518.059 497.8 517.574 497.544 516.944 497.544C516.198 497.544 515.542 497.981 514.976 498.856V502.888C515.2 503.24 515.472 503.517 515.792 503.72C516.123 503.923 516.47 504.024 516.832 504.024ZM529.276 505H528.012L527.9 503.688C527.58 504.211 527.212 504.595 526.796 504.84C526.38 505.075 525.874 505.192 525.276 505.192C524.54 505.192 523.964 504.968 523.548 504.52C523.132 504.072 522.924 503.437 522.924 502.616V496.568H524.396V502.456C524.396 503.032 524.498 503.443 524.7 503.688C524.903 503.923 525.234 504.04 525.692 504.04C526.514 504.04 527.218 503.555 527.804 502.584V496.568H529.276V505ZM532.701 502.968C533.021 502.968 533.288 503.075 533.501 503.288C533.714 503.501 533.821 503.763 533.821 504.072C533.821 504.403 533.725 504.781 533.533 505.208L532.461 507.656H531.405L532.045 505C531.906 504.893 531.794 504.76 531.709 504.6C531.634 504.44 531.597 504.264 531.597 504.072C531.597 503.763 531.704 503.501 531.917 503.288C532.13 503.075 532.392 502.968 532.701 502.968ZM544.331 493.784C544.992 493.784 545.547 493.869 545.995 494.04C546.454 494.211 546.918 494.488 547.387 494.872L546.555 495.848C545.883 495.304 545.174 495.032 544.427 495.032C543.51 495.032 542.768 495.384 542.203 496.088C541.648 496.792 541.371 497.923 541.371 499.48C541.371 500.995 541.648 502.115 542.203 502.84C542.758 503.555 543.494 503.912 544.411 503.912C544.88 503.912 545.291 503.832 545.643 503.672C545.995 503.512 546.368 503.288 546.763 503L547.515 503.96C547.174 504.312 546.736 504.605 546.203 504.84C545.67 505.075 545.056 505.192 544.363 505.192C543.467 505.192 542.667 504.973 541.963 504.536C541.27 504.088 540.726 503.437 540.331 502.584C539.947 501.72 539.755 500.685 539.755 499.48C539.755 498.275 539.958 497.245 540.363 496.392C540.768 495.528 541.318 494.877 542.011 494.44C542.704 494.003 543.478 493.784 544.331 493.784ZM555.3 505L554.468 502.232H550.292L549.46 505H547.924L551.46 493.976H553.38L556.9 505H555.3ZM550.66 501H554.1L552.388 495.24L550.66 501Z" fill="white"/>
<path d="M598.378 258.784C599.039 258.784 599.594 258.869 600.042 259.04C600.501 259.211 600.965 259.488 601.434 259.872L600.602 260.848C599.93 260.304 599.221 260.032 598.474 260.032C597.557 260.032 596.815 260.384 596.25 261.088C595.695 261.792 595.418 262.923 595.418 264.48C595.418 265.995 595.695 267.115 596.25 267.84C596.805 268.555 597.541 268.912 598.458 268.912C598.927 268.912 599.338 268.832 599.69 268.672C600.042 268.512 600.415 268.288 600.81 268L601.562 268.96C601.221 269.312 600.783 269.605 600.25 269.84C599.717 270.075 599.103 270.192 598.41 270.192C597.514 270.192 596.714 269.973 596.01 269.536C595.317 269.088 594.773 268.437 594.378 267.584C593.994 266.72 593.802 265.685 593.802 264.48C593.802 263.275 594.005 262.245 594.41 261.392C594.815 260.528 595.365 259.877 596.058 259.44C596.751 259.003 597.525 258.784 598.378 258.784ZM609.401 270H608.137L608.025 268.688C607.705 269.211 607.337 269.595 606.921 269.84C606.505 270.075 605.999 270.192 605.401 270.192C604.665 270.192 604.089 269.968 603.673 269.52C603.257 269.072 603.049 268.437 603.049 267.616V261.568H604.521V267.456C604.521 268.032 604.623 268.443 604.825 268.688C605.028 268.923 605.359 269.04 605.817 269.04C606.639 269.04 607.343 268.555 607.929 267.584V261.568H609.401V270ZM616.106 261.376C616.405 261.376 616.682 261.408 616.938 261.472L616.666 262.912C616.41 262.848 616.165 262.816 615.93 262.816C615.407 262.816 614.986 263.008 614.666 263.392C614.346 263.776 614.095 264.373 613.914 265.184V270H612.442V261.568H613.706L613.85 263.28C614.074 262.651 614.378 262.176 614.762 261.856C615.146 261.536 615.594 261.376 616.106 261.376ZM622.278 261.376C622.576 261.376 622.854 261.408 623.11 261.472L622.838 262.912C622.582 262.848 622.336 262.816 622.102 262.816C621.579 262.816 621.158 263.008 620.838 263.392C620.518 263.776 620.267 264.373 620.086 265.184V270H618.614V261.568H619.878L620.022 263.28C620.246 262.651 620.55 262.176 620.934 261.856C621.318 261.536 621.766 261.376 622.278 261.376ZM630.669 265.536C630.669 265.781 630.659 266.032 630.637 266.288H625.261C625.325 267.216 625.56 267.899 625.965 268.336C626.371 268.773 626.893 268.992 627.533 268.992C627.939 268.992 628.312 268.933 628.653 268.816C628.995 268.699 629.352 268.512 629.725 268.256L630.365 269.136C629.469 269.84 628.488 270.192 627.421 270.192C626.248 270.192 625.331 269.808 624.669 269.04C624.019 268.272 623.693 267.216 623.693 265.872C623.693 264.997 623.832 264.224 624.109 263.552C624.397 262.869 624.803 262.336 625.325 261.952C625.859 261.568 626.483 261.376 627.197 261.376C628.317 261.376 629.176 261.744 629.773 262.48C630.371 263.216 630.669 264.235 630.669 265.536ZM629.213 265.104C629.213 264.272 629.048 263.637 628.717 263.2C628.387 262.763 627.891 262.544 627.229 262.544C626.024 262.544 625.368 263.429 625.261 265.2H629.213V265.104ZM636.988 261.376C637.756 261.376 638.353 261.605 638.78 262.064C639.217 262.523 639.436 263.152 639.436 263.952V270H637.964V264.16C637.964 263.563 637.852 263.141 637.628 262.896C637.404 262.651 637.073 262.528 636.636 262.528C636.188 262.528 635.793 262.656 635.452 262.912C635.111 263.168 634.791 263.536 634.492 264.016V270H633.02V261.568H634.284L634.412 262.816C634.711 262.368 635.079 262.016 635.516 261.76C635.964 261.504 636.455 261.376 636.988 261.376ZM646.651 269.616C646.096 270 645.467 270.192 644.763 270.192C644.048 270.192 643.488 269.989 643.083 269.584C642.688 269.168 642.491 268.571 642.491 267.792V262.704H641.019V261.568H642.491V259.664L643.963 259.488V261.568H645.963L645.803 262.704H643.963V267.728C643.963 268.165 644.038 268.485 644.187 268.688C644.347 268.88 644.608 268.976 644.971 268.976C645.302 268.976 645.675 268.864 646.091 268.64L646.651 269.616ZM654.011 258.976V268.672H658.539L658.363 270H652.491V258.976H654.011ZM663.141 261.376C664.325 261.376 665.242 261.771 665.893 262.56C666.554 263.349 666.885 264.421 666.885 265.776C666.885 266.651 666.736 267.424 666.437 268.096C666.138 268.757 665.706 269.275 665.141 269.648C664.576 270.011 663.904 270.192 663.125 270.192C661.941 270.192 661.018 269.797 660.357 269.008C659.696 268.219 659.365 267.147 659.365 265.792C659.365 264.917 659.514 264.149 659.813 263.488C660.112 262.816 660.544 262.299 661.109 261.936C661.674 261.563 662.352 261.376 663.141 261.376ZM663.141 262.56C661.68 262.56 660.949 263.637 660.949 265.792C660.949 267.936 661.674 269.008 663.125 269.008C664.576 269.008 665.301 267.931 665.301 265.776C665.301 263.632 664.581 262.56 663.141 262.56ZM672.389 261.376C672.89 261.376 673.349 261.451 673.765 261.6C674.181 261.739 674.581 261.968 674.965 262.288L674.261 263.216C673.962 263.003 673.669 262.848 673.381 262.752C673.104 262.645 672.794 262.592 672.453 262.592C671.77 262.592 671.237 262.864 670.853 263.408C670.48 263.952 670.293 264.757 670.293 265.824C670.293 266.891 670.48 267.68 670.853 268.192C671.226 268.693 671.76 268.944 672.453 268.944C672.784 268.944 673.088 268.896 673.365 268.8C673.642 268.693 673.952 268.528 674.293 268.304L674.965 269.264C674.197 269.883 673.338 270.192 672.389 270.192C671.248 270.192 670.346 269.808 669.685 269.04C669.034 268.272 668.709 267.211 668.709 265.856C668.709 264.96 668.858 264.176 669.157 263.504C669.456 262.832 669.877 262.309 670.421 261.936C670.976 261.563 671.632 261.376 672.389 261.376ZM682.481 268.032C682.481 268.373 682.54 268.629 682.657 268.8C682.775 268.96 682.951 269.083 683.185 269.168L682.849 270.192C682.412 270.139 682.06 270.016 681.793 269.824C681.527 269.632 681.329 269.333 681.201 268.928C680.636 269.771 679.799 270.192 678.689 270.192C677.857 270.192 677.201 269.957 676.721 269.488C676.241 269.019 676.001 268.405 676.001 267.648C676.001 266.752 676.321 266.064 676.961 265.584C677.612 265.104 678.529 264.864 679.713 264.864H681.009V264.24C681.009 263.643 680.865 263.216 680.577 262.96C680.289 262.704 679.847 262.576 679.249 262.576C678.631 262.576 677.873 262.725 676.977 263.024L676.609 261.952C677.655 261.568 678.625 261.376 679.521 261.376C680.513 261.376 681.255 261.621 681.745 262.112C682.236 262.592 682.481 263.28 682.481 264.176V268.032ZM679.025 269.088C679.868 269.088 680.529 268.651 681.009 267.776V265.84H679.905C678.348 265.84 677.569 266.416 677.569 267.568C677.569 268.069 677.692 268.448 677.937 268.704C678.183 268.96 678.545 269.088 679.025 269.088ZM689.76 269.616C689.206 270 688.576 270.192 687.872 270.192C687.158 270.192 686.598 269.989 686.192 269.584C685.798 269.168 685.6 268.571 685.6 267.792V262.704H684.128V261.568H685.6V259.664L687.072 259.488V261.568H689.072L688.912 262.704H687.072V267.728C687.072 268.165 687.147 268.485 687.296 268.688C687.456 268.88 687.718 268.976 688.08 268.976C688.411 268.976 688.784 268.864 689.2 268.64L689.76 269.616ZM692.758 261.568V270H691.286V261.568H692.758ZM692.006 257.52C692.315 257.52 692.566 257.616 692.758 257.808C692.95 258 693.046 258.24 693.046 258.528C693.046 258.816 692.95 259.056 692.758 259.248C692.566 259.429 692.315 259.52 692.006 259.52C691.707 259.52 691.462 259.429 691.27 259.248C691.078 259.056 690.982 258.816 690.982 258.528C690.982 258.24 691.078 258 691.27 257.808C691.462 257.616 691.707 257.52 692.006 257.52ZM698.969 261.376C700.153 261.376 701.071 261.771 701.721 262.56C702.383 263.349 702.713 264.421 702.713 265.776C702.713 266.651 702.564 267.424 702.265 268.096C701.967 268.757 701.535 269.275 700.969 269.648C700.404 270.011 699.732 270.192 698.953 270.192C697.769 270.192 696.847 269.797 696.185 269.008C695.524 268.219 695.193 267.147 695.193 265.792C695.193 264.917 695.343 264.149 695.641 263.488C695.94 262.816 696.372 262.299 696.937 261.936C697.503 261.563 698.18 261.376 698.969 261.376ZM698.969 262.56C697.508 262.56 696.777 263.637 696.777 265.792C696.777 267.936 697.503 269.008 698.953 269.008C700.404 269.008 701.129 267.931 701.129 265.776C701.129 263.632 700.409 262.56 698.969 262.56ZM709.113 261.376C709.881 261.376 710.478 261.605 710.905 262.064C711.342 262.523 711.561 263.152 711.561 263.952V270H710.089V264.16C710.089 263.563 709.977 263.141 709.753 262.896C709.529 262.651 709.198 262.528 708.761 262.528C708.313 262.528 707.918 262.656 707.577 262.912C707.236 263.168 706.916 263.536 706.617 264.016V270H705.145V261.568H706.409L706.537 262.816C706.836 262.368 707.204 262.016 707.641 261.76C708.089 261.504 708.58 261.376 709.113 261.376Z" fill="white"/>
</svg>
